<svg width="100" height="87" viewBox="0 0 100 87" fill="none" xmlns="http://www.w3.org/2000/svg">
<path fill-rule="evenodd" clip-rule="evenodd" d="M36.4133 0.279981C31.5296 1.35245 27.507 4.92668 25.5825 9.90414C24.0148 13.9579 23.9302 18.7494 25.3537 22.8337C26.2164 25.3094 27.3291 27.0574 29.278 28.9985C31.3161 31.0287 32.6081 31.8828 34.7839 32.6381C36.6727 33.2938 39.8965 33.4647 41.8342 33.0119C47.4633 31.6963 51.7976 26.9789 53.2601 20.577C53.7818 18.2929 53.6952 14.376 53.071 12.0259C50.9105 3.89218 43.5617 -1.28968 36.4133 0.279981ZM68.4513 7.96108C62.6607 8.87528 57.7336 13.6316 56.0362 19.9457C55.4529 22.1153 55.4455 25.9302 56.0204 28.0512C57.6805 34.1745 62.4054 38.0032 68.2667 37.9747C74.3889 37.9449 79.7501 33.6481 82.0803 26.9034C82.7212 25.0489 82.7354 24.9366 82.7317 21.7951C82.7284 18.865 82.6838 18.4519 82.2244 17.0904C80.7589 12.7478 77.4946 9.46125 73.4792 8.28619C72.1781 7.90541 69.7843 7.75045 68.4513 7.96108ZM9.10357 19.5659C1.88712 21.3084 -1.89968 29.6214 0.954836 37.4544C2.58306 41.922 6.13391 45.4148 10.4133 46.7583C12.3346 47.3616 15.3297 47.36 17.2896 46.7548C20.1342 45.8766 22.6838 43.669 24.1093 40.8499C25.2447 38.6049 25.6278 36.708 25.5189 33.8702C25.4396 31.7994 25.3322 31.1568 24.8075 29.6111C23.902 26.9439 22.8575 25.2878 20.7944 23.2479C19.3642 21.8338 18.6862 21.3269 17.3407 20.6658C14.6316 19.3346 11.6885 18.9415 9.10357 19.5659ZM85.6764 33.5854C84.9237 33.7497 83.4181 34.3137 82.3302 34.8387C77.1511 37.3385 73.6517 42.8375 73.6585 48.4656C73.663 52.1251 74.7527 54.8576 77.1548 57.2338C79.6569 59.7087 82.1902 60.6513 85.8718 60.4767C88.299 60.3616 90.0025 59.8724 92.2 58.659C93.898 57.7214 96.7863 54.8507 97.8533 53.0405C100.381 48.7518 100.699 43.6279 98.6879 39.6079C97.7145 37.6625 96.7168 36.5053 95.0127 35.3458C92.3793 33.5539 88.8599 32.8904 85.6764 33.5854ZM42.2682 35.7989C38.0018 36.5472 34.2909 38.2301 30.9396 40.9371C28.3273 43.047 26.9667 44.8631 20.6329 54.6952C17.2875 59.8881 14.3034 64.6626 14.0013 65.305C12.1641 69.2137 12.1723 74.2612 14.0223 78.1983C16.0164 82.4422 19.7364 85.4729 24.3892 86.6447C25.783 86.9957 26.4266 87.0455 28.5854 86.969C30.7993 86.8906 31.3541 86.8002 32.7968 86.2836C40.3328 83.5844 41.124 83.4178 46.3832 83.4238C49.6739 83.4275 50.6085 83.4964 52.2858 83.8585C54.1951 84.2706 54.9688 84.5138 59.5787 86.1498C61.434 86.8084 61.8661 86.8865 64.0749 86.9634C67.5851 87.0854 69.9902 86.5022 72.825 84.8416C74.398 83.92 76.9355 81.3487 77.9464 79.6522C79.3263 77.3359 79.9378 75.2638 80.0547 72.508C80.1687 69.8228 79.8621 67.9335 78.969 65.8166C78.4712 64.6369 69.901 51.0676 66.5963 46.2268C65.4064 44.4839 63.0374 41.9093 61.4358 40.6188C56.3506 36.5207 48.8727 34.6403 42.2682 35.7989Z" fill="#FF4949"/>
</svg>
