<svg width="20" height="25" viewBox="0 0 20 25" fill="none" xmlns="http://www.w3.org/2000/svg">
<path fill-rule="evenodd" clip-rule="evenodd" d="M6.97326 0.047105C6.60557 0.119236 6.09964 0.394133 5.81998 0.673798C5.35281 1.14101 5.14403 1.73602 5.14176 2.60684L5.1408 2.98002L3.68422 2.98098C2.04528 2.98204 1.68482 3.01762 1.24895 3.22126C0.858104 3.40385 0.393633 3.86427 0.214557 4.24655C-0.187267 5.10451 -0.0150292 6.09687 0.650233 6.75684C0.880109 6.98488 1.4235 7.31366 1.57055 7.31366C1.60936 7.31366 1.62747 9.34344 1.63691 14.741L1.64981 22.1684L1.78098 22.5536C1.9627 23.0872 2.22055 23.4997 2.58954 23.8472C2.96786 24.2035 3.37046 24.4255 3.86941 24.5531C4.22963 24.6452 4.42281 24.6482 10.0041 24.6482C15.5854 24.6482 15.7786 24.6452 16.1388 24.5531C17.3101 24.2535 18.15 23.2816 18.3334 22.0136C18.3625 21.8118 18.3809 18.9398 18.3815 14.504L18.3825 7.32112L18.5631 7.26219C19.2522 7.03722 19.8511 6.30277 19.9756 5.52974C20.1066 4.71632 19.7001 3.809 19.0046 3.36273C18.4798 3.02595 18.3969 3.01344 16.5479 2.99143L14.8818 2.97164L14.8515 2.40831C14.8179 1.78417 14.7192 1.42323 14.48 1.05054C14.1579 0.548604 13.5757 0.153953 12.9948 0.0437825C12.6764 -0.0165996 7.28297 -0.0136142 6.97326 0.047105ZM13.0627 1.25412C13.4943 1.49088 13.6666 1.82313 13.7003 2.48357L13.7256 2.98002H10.0057H6.2858L6.30352 2.46239C6.31931 2.00254 6.33602 1.91958 6.45351 1.71917C6.52622 1.59513 6.65358 1.44528 6.7365 1.38625C7.06638 1.15137 7.05261 1.15228 10.0763 1.16364C12.6179 1.17323 12.9326 1.18276 13.0627 1.25412ZM18.2621 4.2634C18.5075 4.39548 18.6461 4.5449 18.7469 4.78609C18.9323 5.22985 18.7796 5.76178 18.3877 6.03721L18.1816 6.1821L10.1083 6.19625C4.47207 6.20617 1.98119 6.19491 1.85662 6.15889C1.37703 6.02021 1.06959 5.46608 1.19112 4.95939C1.28251 4.57841 1.58929 4.27809 1.98687 4.18034C2.06632 4.16079 5.71742 4.14818 10.1004 4.15227L18.0695 4.15973L18.2621 4.2634ZM17.2158 14.4642C17.2247 19.2934 17.2125 21.6495 17.1775 21.8795C17.0762 22.5454 16.7326 23.0372 16.1781 23.3102L15.8566 23.4685L10.1305 23.4815C3.91833 23.4956 4.08228 23.5018 3.66091 23.2358C3.26665 22.987 2.93989 22.5015 2.8355 22.0096C2.79683 21.8271 2.78137 19.7029 2.78137 14.558V7.36147L9.99207 7.3737L17.2028 7.38589L17.2158 14.4642ZM6.21044 9.09238C6.13258 9.17024 6.05505 9.30295 6.0382 9.38731C6.02135 9.47167 6.00753 11.998 6.00753 15.0014C6.00753 20.8235 6.00074 20.6492 6.23567 20.8584C6.38104 20.9877 6.63947 21.0133 6.84012 20.918C7.18416 20.7547 7.16317 21.143 7.16317 14.948C7.16317 8.90223 7.1767 9.20987 6.90247 9.03017C6.83574 8.98645 6.68497 8.95081 6.56667 8.95081C6.39332 8.95081 6.32475 8.97807 6.21044 9.09238ZM9.65954 9.0594C9.58924 9.11886 9.50796 9.21483 9.47897 9.27266C9.44175 9.34701 9.42629 11.0108 9.42629 14.9473C9.42629 21.1431 9.4053 20.7547 9.74934 20.918C9.94999 21.0133 10.2084 20.9877 10.3538 20.8584C10.5887 20.6492 10.5819 20.8235 10.5819 15.0014C10.5819 11.998 10.5681 9.47167 10.5513 9.38731C10.5344 9.30295 10.4569 9.17024 10.379 9.09238C10.1945 8.90781 9.85715 8.89231 9.65954 9.0594ZM13.0088 9.11453L12.8451 9.27824V14.9192C12.8451 19.7633 12.855 20.5793 12.9152 20.6957C12.9918 20.8438 13.2488 20.9887 13.4351 20.9887C13.615 20.9887 13.8729 20.7903 13.9378 20.6018C14.0135 20.3821 14.026 9.64559 13.9509 9.37522C13.879 9.11636 13.6603 8.95081 13.3903 8.95081C13.2068 8.95081 13.1467 8.97662 13.0088 9.11453Z" fill="black"/>
</svg>
