<svg width="25" height="18" viewBox="0 0 25 18" fill="none" xmlns="http://www.w3.org/2000/svg">
<path fill-rule="evenodd" clip-rule="evenodd" d="M11.1057 0.969548C8.0203 1.43863 4.9136 3.19499 1.98141 6.12782C1.01893 7.09049 0.291096 7.93569 0.127593 8.28061C0.021184 8.50497 0 8.61881 0 8.96554C0 9.52018 0.116243 9.75854 0.738209 10.4794C2.8818 12.9637 5.68283 15.1057 8.11693 16.1218C9.80034 16.8246 11.0723 17.0693 12.811 17.0248C14.4696 16.9824 15.7825 16.6556 17.4676 15.8659C19.4253 14.9485 21.7795 13.1601 23.5886 11.216C24.8696 9.83946 25 9.63153 25 8.96554C25 8.39558 24.887 8.17346 24.1909 7.37552C22.3127 5.22234 20.1216 3.44753 17.9765 2.342C16.5091 1.58579 15.2479 1.16378 13.8698 0.967934C13.2273 0.876642 11.7111 0.877523 11.1057 0.969548ZM13.4414 3.65487C14.1554 3.78217 14.8669 4.06877 15.5088 4.4877C15.8869 4.73442 16.7311 5.57865 16.9778 5.95673C17.589 6.89337 17.8765 7.84597 17.8799 8.9469C17.8854 10.6931 17.1129 12.238 15.7045 13.2974C14.7758 13.9961 13.7007 14.3471 12.4901 14.3471C9.50421 14.3471 7.11115 11.952 7.12011 8.97239C7.12446 7.52469 7.60871 6.30419 8.58601 5.27772C9.16756 4.66691 9.78743 4.24039 10.5071 3.95575C10.8301 3.82796 11.4475 3.65952 11.7417 3.61886C12.0862 3.57126 13.092 3.59259 13.4414 3.65487ZM11.9393 5.15179C10.9925 5.30008 10.1111 5.80194 9.51385 6.53281C9.21086 6.9036 8.86365 7.59768 8.74971 8.06045C8.62813 8.55414 8.6387 9.45879 8.77182 9.95106C9.13689 11.3008 10.1805 12.3309 11.5705 12.7137C12.0471 12.8449 12.9902 12.8346 13.4931 12.6926C15.5376 12.1154 16.7259 10.1013 16.2405 8.03599C16.1384 7.60145 15.7866 6.90052 15.4862 6.53281C14.9892 5.92473 14.1564 5.39533 13.4295 5.22542C13.017 5.12894 12.3086 5.09396 11.9393 5.15179Z" fill="#E8E8E8"/>
</svg>
