<svg width="40" height="35" viewBox="0 0 40 35" fill="none" xmlns="http://www.w3.org/2000/svg">
<path fill-rule="evenodd" clip-rule="evenodd" d="M14.5653 0.111993C12.6118 0.540979 11.0028 1.97067 10.233 3.96165C9.60593 5.58314 9.57208 7.49976 10.1415 9.13347C10.4866 10.1237 10.9317 10.8229 11.7112 11.5994C12.5265 12.4115 13.0432 12.7531 13.9136 13.0552C14.6691 13.3175 15.9586 13.3859 16.7337 13.2048C18.9853 12.6785 20.7191 10.7916 21.304 8.2308C21.5127 7.31715 21.4781 5.75041 21.2284 4.81036C20.3642 1.55687 17.4247 -0.515874 14.5653 0.111993ZM27.3805 3.18443C25.0643 3.55011 23.0935 5.45263 22.4145 7.97827C22.1812 8.84613 22.1782 10.3721 22.4082 11.2205C23.0722 13.6698 24.9622 15.2013 27.3067 15.1899C29.7555 15.178 31.9001 13.4592 32.8321 10.7613C33.0885 10.0196 33.0942 9.97462 33.0927 8.71804C33.0914 7.54601 33.0735 7.38077 32.8898 6.83615C32.3035 5.0991 30.9978 3.7845 29.3917 3.31448C28.8712 3.16216 27.9137 3.10018 27.3805 3.18443ZM3.64143 7.82635C0.754848 8.52336 -0.759874 11.8486 0.381935 14.9817C1.03322 16.7688 2.45356 18.1659 4.16534 18.7033C4.93384 18.9446 6.13187 18.944 6.91586 18.7019C8.05368 18.3506 9.0735 17.4676 9.6437 16.34C10.0979 15.442 10.2511 14.6832 10.2076 13.5481C10.1758 12.7198 10.1329 12.4627 9.92302 11.8444C9.56082 10.7775 9.14302 10.1151 8.31774 9.29918C7.74567 8.73353 7.47449 8.53076 6.93627 8.26631C5.85264 7.73384 4.67541 7.57662 3.64143 7.82635ZM34.2705 13.4342C33.9695 13.4999 33.3672 13.7255 32.9321 13.9355C30.8604 14.9354 29.4607 17.135 29.4634 19.3862C29.4652 20.85 29.9011 21.943 30.8619 22.8935C31.8628 23.8835 32.8761 24.2605 34.3487 24.1907C35.3196 24.1446 36.001 23.949 36.88 23.4636C37.5592 23.0886 38.7145 21.9403 39.1413 21.2162C40.1523 19.5007 40.2796 17.4512 39.4751 15.8431C39.0858 15.065 38.6867 14.6021 38.0051 14.1383C36.9517 13.4215 35.544 13.1562 34.2705 13.4342ZM16.9073 14.3195C15.2007 14.6189 13.7164 15.2921 12.3758 16.3748C11.3309 17.2188 10.7867 17.9452 8.25315 21.8781C6.915 23.9553 5.72135 25.865 5.60053 26.122C4.86565 27.6855 4.86894 29.7045 5.6089 31.2793C6.40657 32.9769 7.89455 34.1892 9.75568 34.6579C10.3132 34.7983 10.5706 34.8182 11.4341 34.7876C12.3197 34.7562 12.5416 34.7201 13.1187 34.5134C16.1331 33.4338 16.4496 33.3671 18.5533 33.3695C19.8695 33.371 20.2434 33.3986 20.9143 33.5434C21.678 33.7082 21.9875 33.8055 23.8315 34.4599C24.5736 34.7234 24.7464 34.7546 25.63 34.7853C27.034 34.8342 27.9961 34.6009 29.13 33.9366C29.7592 33.568 30.7742 32.5395 31.1785 31.8609C31.7305 30.9344 31.9751 30.1055 32.0219 29.0032C32.0675 27.9291 31.9449 27.1734 31.5876 26.3266C31.3885 25.8547 27.9604 20.427 26.6385 18.4907C26.1625 17.7936 25.215 16.7637 24.5743 16.2475C22.5402 14.6083 19.5491 13.8561 16.9073 14.3195Z" fill="#FF4949"/>
</svg>
