<svg width="39" height="29" viewBox="0 0 39 29" fill="none" xmlns="http://www.w3.org/2000/svg">
<path d="M36.0143 6.2V23H34.2623V15.248H23.7503V23H21.9743V6.2H23.7503V13.688H34.2623V6.2H36.0143Z" fill="black"/>
<path d="M13.5862 14.336H17.1382V21.152C16.2262 21.84 15.1702 22.368 13.9702 22.736C12.7702 23.104 11.5622 23.288 10.3462 23.288C8.60219 23.288 7.03419 22.92 5.64219 22.184C4.25019 21.432 3.15419 20.4 2.35419 19.088C1.57019 17.76 1.17819 16.264 1.17819 14.6C1.17819 12.936 1.57019 11.448 2.35419 10.136C3.15419 8.808 4.25819 7.776 5.66619 7.04C7.07419 6.288 8.65819 5.912 10.4182 5.912C11.8902 5.912 13.2262 6.16 14.4262 6.656C15.6262 7.152 16.6342 7.872 17.4502 8.816L14.9542 11.12C13.7542 9.856 12.3062 9.224 10.6102 9.224C9.53819 9.224 8.58619 9.448 7.75419 9.896C6.92219 10.344 6.27419 10.976 5.81019 11.792C5.34619 12.608 5.11419 13.544 5.11419 14.6C5.11419 15.64 5.34619 16.568 5.81019 17.384C6.27419 18.2 6.91419 18.84 7.73019 19.304C8.56219 19.752 9.50619 19.976 10.5622 19.976C11.6822 19.976 12.6902 19.736 13.5862 19.256V14.336Z" fill="#FF4949"/>
</svg>
