<svg width="20" height="20" viewBox="0 0 20 20" fill="none" xmlns="http://www.w3.org/2000/svg">
<path fill-rule="evenodd" clip-rule="evenodd" d="M9.23066 0.0201445C9.15382 0.0276826 8.89401 0.0529918 8.65333 0.0764263C7.69622 0.169657 6.41214 0.50434 5.48176 0.903118C3.54448 1.73348 1.90567 3.13354 0.990239 4.74028C-0.669339 7.65311 -0.219331 11.054 2.16297 13.6033C2.30506 13.7553 4.04776 15.2452 6.03557 16.9141C9.24533 19.6088 9.66936 19.9513 9.82444 19.9747C10.2655 20.041 10.0348 20.2116 13.9626 16.9141C15.9504 15.2452 17.6931 13.7553 17.8352 13.6033C20.6802 10.5588 20.7251 6.36988 17.9456 3.29516C17.5782 2.88872 16.8832 2.2854 16.3559 1.91525C14.5878 0.673928 12.2375 -0.0244592 9.91264 0.000654759C9.6144 0.00385748 9.3075 0.0126454 9.23066 0.0201445ZM11.1386 4.75938C11.9369 4.9403 12.6186 5.28021 13.1928 5.78347C13.7887 6.30571 14.1118 6.78408 14.3375 7.4779C14.4711 7.88871 14.4845 8.81922 14.3628 9.22616C14.0286 10.3428 13.1855 11.2328 11.9811 11.7402C11.3311 12.014 10.8101 12.1142 10.0224 12.117C9.21767 12.1198 8.74866 12.0327 8.06478 11.7535C7.49848 11.5222 7.12294 11.2909 6.7175 10.9237C6.19717 10.4523 5.82992 9.87627 5.63548 9.22655C5.51361 8.81918 5.52702 7.8889 5.66068 7.4779C6.13262 6.02668 7.44954 4.98799 9.18409 4.69884C9.65939 4.61964 10.6587 4.65057 11.1386 4.75938Z" fill="black"/>
</svg>
