<svg width="25" height="35" viewBox="0 0 25 35" fill="none" xmlns="http://www.w3.org/2000/svg">
<path fill-rule="evenodd" clip-rule="evenodd" d="M11.5951 0.921999C10.2433 1.09411 8.94878 1.57773 7.82096 2.33211C7.19392 2.75156 6.04703 3.89845 5.62758 4.52548C5.02963 5.41944 4.62235 6.35856 4.3577 7.45372C4.23699 7.95314 4.22118 8.26725 4.19489 10.691L4.1658 13.3753H3.46921C3.05373 13.3753 2.61833 13.4155 2.39019 13.4749C1.26783 13.7673 0.403348 14.6345 0.109418 15.7629C-0.0364728 16.3229 -0.0364728 31.2506 0.109418 31.8106C0.403348 32.939 1.26783 33.8063 2.39019 34.0986C2.72537 34.186 3.97599 34.1983 12.5061 34.1983C23.218 34.1983 22.5872 34.2215 23.3815 33.7981C24.1289 33.3998 24.7726 32.5162 24.9335 31.6675C24.9763 31.4419 24.9999 28.6176 24.9999 23.7265C24.9999 15.4658 25.0141 15.8013 24.635 15.0533C24.4026 14.5945 23.8374 14.0184 23.3815 13.7755C22.83 13.4815 22.3422 13.3753 21.5431 13.3753H20.8465L20.8174 10.691C20.7911 8.26725 20.7753 7.95314 20.6546 7.45372C20.2511 5.7841 19.5495 4.52282 18.371 3.34801C17.1625 2.14333 15.8994 1.44283 14.2631 1.06978C13.7199 0.945945 12.1083 0.856667 11.5951 0.921999ZM13.6139 3.77182C14.2265 3.9017 15.0129 4.22153 15.4933 4.53622C16.758 5.36452 17.7003 6.76129 17.9667 8.2023C18.0092 8.43207 18.0372 9.53686 18.0372 10.9796V13.3753H12.5061H6.97502L6.97613 10.9513C6.97736 8.30434 6.99929 8.087 7.35797 7.15933C8.01045 5.47182 9.5451 4.17676 11.3674 3.77579C11.8857 3.66179 13.0847 3.65964 13.6139 3.77182ZM13.4565 19.1104C14.4211 19.4693 15.0772 20.277 15.2436 21.3101C15.3955 22.2533 14.9752 23.2853 14.1977 23.8782L13.8784 24.1218L13.8592 25.9335L13.8401 27.7452L13.642 28.0272C13.0118 28.9244 11.6554 28.7995 11.2404 27.8061C11.158 27.6092 11.1396 27.2504 11.1396 25.8456V24.1261L10.8094 23.8751C10.0423 23.2921 9.61739 22.2498 9.76732 21.3188C10.0037 19.8507 11.2911 18.8235 12.7339 18.952C12.9486 18.9712 13.2738 19.0424 13.4565 19.1104Z" fill="#E8E8E8"/>
</svg>
