<svg width="432" height="61" viewBox="0 0 432 61" fill="none" xmlns="http://www.w3.org/2000/svg">
<path fill-rule="evenodd" clip-rule="evenodd" d="M25.4893 0.195987C22.0707 0.946713 19.2549 3.44868 17.9077 6.9329C16.8104 9.7705 16.7511 13.1246 17.7476 15.9836C18.3515 17.7166 19.1304 18.9401 20.4946 20.2989C21.9213 21.7201 22.8257 22.3179 24.3487 22.8467C25.6709 23.3056 27.9276 23.4253 29.2839 23.1083C33.2243 22.1874 36.2583 18.8852 37.2821 14.4039C37.6473 12.805 37.5867 10.0632 37.1497 8.41813C35.6374 2.72453 30.4932 -0.902779 25.4893 0.195987ZM47.9159 5.57276C43.8625 6.2127 40.4135 9.54211 39.2254 13.962C38.817 15.4807 38.8118 18.1511 39.2143 19.6358C40.3763 23.9221 43.6838 26.6022 47.7867 26.5823C52.0722 26.5615 55.8251 23.5537 57.4562 18.8324C57.9048 17.5342 57.9148 17.4556 57.9122 15.2566C57.9099 13.2055 57.8787 12.9164 57.5571 11.9633C56.5312 8.92343 54.2462 6.62288 51.4355 5.80033C50.5247 5.53379 48.849 5.42531 47.9159 5.57276ZM6.3725 13.6961C1.32098 14.9159 -1.32978 20.735 0.668385 26.2181C1.80814 29.3454 4.29374 31.7904 7.28934 32.7308C8.63422 33.1531 10.7308 33.152 12.1028 32.7283C14.0939 32.1136 15.8786 30.5683 16.8765 28.5949C17.6713 27.0234 17.9395 25.6956 17.8632 23.7091C17.8077 22.2596 17.7326 21.8098 17.3653 20.7278C16.7314 18.8607 16.0003 17.7014 14.5561 16.2736C13.5549 15.2837 13.0803 14.9288 12.1385 14.466C10.2421 13.5342 8.18196 13.2591 6.3725 13.6961ZM59.9734 23.5098C59.4466 23.6248 58.3927 24.0196 57.6311 24.3871C54.0058 26.137 51.5562 29.9863 51.561 33.9259C51.5641 36.4876 52.3269 38.4003 54.0084 40.0636C55.7598 41.7961 57.5331 42.4559 60.1103 42.3337C61.8093 42.2531 63.0018 41.9107 64.54 41.0613C65.7286 40.405 67.7504 38.3955 68.4973 37.1283C70.2666 34.1262 70.4893 30.5395 69.0815 27.7255C68.4002 26.3637 67.7017 25.5537 66.5089 24.7421C64.6655 23.4877 62.2019 23.0233 59.9734 23.5098ZM29.5877 25.0592C26.6013 25.583 24.0036 26.7611 21.6577 28.656C19.8291 30.1329 18.8767 31.4042 14.443 38.2866C12.1012 41.9217 10.0124 45.2638 9.80094 45.7135C8.5149 48.4496 8.52064 51.9829 9.81558 54.7388C11.2115 57.7096 13.8155 59.8311 17.0724 60.6513C18.0481 60.897 18.4986 60.9319 20.0097 60.8783C21.5595 60.8234 21.9478 60.7602 22.9577 60.3985C28.233 58.5091 28.7868 58.3924 32.4682 58.3967C34.7717 58.3992 35.4259 58.4475 36.6 58.701C37.9366 58.9894 38.4782 59.1596 41.7051 60.3049C43.0038 60.7659 43.3062 60.8205 44.8524 60.8744C47.3096 60.9598 48.9931 60.5515 50.9775 59.3891C52.0786 58.744 53.8548 56.9441 54.5624 55.7565C55.5284 54.1351 55.9565 52.6847 56.0383 50.7556C56.1181 48.876 55.9035 47.5534 55.2783 46.0716C54.9299 45.2458 48.9307 35.7473 46.6174 32.3588C45.7845 31.1387 44.1262 29.3365 43.0051 28.4332C39.4454 25.5645 34.2109 24.2482 29.5877 25.0592Z" fill="#FF4949"/>
<path d="M121.015 31.8337H131.763V49.5599C129.306 51.3121 126.481 52.6569 123.287 53.5941C120.094 54.5314 116.9 55 113.707 55C109.203 55 105.149 54.0628 101.546 52.1883C97.9431 50.273 95.118 47.6243 93.0708 44.2421C91.0236 40.8598 90 37.0293 90 32.7506C90 28.4719 91.0236 24.6414 93.0708 21.2592C95.118 17.8769 97.9636 15.2486 101.608 13.3741C105.252 11.4588 109.366 10.5012 113.952 10.5012C117.965 10.5012 121.568 11.1736 124.761 12.5183C127.955 13.8631 130.616 15.7987 132.745 18.3252L125.007 25.2934C122.1 22.1149 118.62 20.5257 114.566 20.5257C110.881 20.5257 107.913 21.6463 105.661 23.8875C103.409 26.088 102.283 29.0424 102.283 32.7506C102.283 35.1141 102.795 37.2331 103.819 39.1076C104.842 40.9413 106.275 42.3879 108.118 43.4474C109.96 44.4662 112.069 44.9756 114.444 44.9756C116.777 44.9756 118.968 44.5069 121.015 43.5697V31.8337Z" fill="#FF4949"/>
<path d="M138.92 21.0147H150.589V54.1443H138.92V21.0147ZM144.754 17.3472C142.625 17.3472 140.905 16.7563 139.595 15.5746C138.285 14.3928 137.63 12.9258 137.63 11.1736C137.63 9.42135 138.285 7.95436 139.595 6.77262C140.905 5.59087 142.625 5 144.754 5C146.883 5 148.603 5.5705 149.913 6.71149C151.223 7.81174 151.878 9.23798 151.878 10.9902C151.878 12.824 151.223 14.3521 149.913 15.5746C148.603 16.7563 146.883 17.3472 144.754 17.3472Z" fill="#FF4949"/>
<path d="M193.241 21.0147L179.483 54.1443H167.446L153.75 21.0147H165.726L173.71 41.2469L182.124 21.0147H193.241Z" fill="#FF4949"/>
<path d="M229.382 37.6406C229.382 37.7221 229.32 38.6797 229.198 40.5135H205C205.491 42.2249 206.433 43.5493 207.825 44.4866C209.258 45.3831 211.039 45.8313 213.168 45.8313C214.765 45.8313 216.136 45.6072 217.283 45.1589C218.47 44.7107 219.658 43.9772 220.845 42.9584L226.987 49.3154C223.752 52.9014 219.023 54.6944 212.8 54.6944C208.91 54.6944 205.491 53.9609 202.543 52.4939C199.595 51.0269 197.302 48.9894 195.665 46.3814C194.068 43.7734 193.269 40.8191 193.269 37.5183C193.269 34.2584 194.047 31.3447 195.603 28.7775C197.2 26.1695 199.39 24.132 202.175 22.665C204.959 21.198 208.091 20.4646 211.571 20.4646C214.888 20.4646 217.897 21.1573 220.599 22.5428C223.302 23.8875 225.431 25.8639 226.987 28.4719C228.583 31.0391 229.382 34.0954 229.382 37.6406ZM211.633 28.7164C209.831 28.7164 208.316 29.2258 207.088 30.2445C205.9 31.2632 205.143 32.6487 204.815 34.401H218.45C218.122 32.6487 217.344 31.2632 216.116 30.2445C214.929 29.2258 213.434 28.7164 211.633 28.7164Z" fill="#FF4949"/>
<path d="M286.94 11.357V54.1443H282.457V34.401H255.557V54.1443H251.012V11.357H255.557V30.4279H282.457V11.357H286.94Z" fill="black"/>
<path d="M313.255 54.4499C310.144 54.4499 307.339 53.7571 304.841 52.3716C302.344 50.9454 300.379 48.9894 298.945 46.5037C297.512 44.0179 296.796 41.2062 296.796 38.0685C296.796 34.9307 297.512 32.119 298.945 29.6333C300.379 27.1475 302.344 25.2119 304.841 23.8264C307.339 22.4409 310.144 21.7482 313.255 21.7482C316.367 21.7482 319.172 22.4409 321.669 23.8264C324.167 25.2119 326.112 27.1475 327.504 29.6333C328.937 32.119 329.653 34.9307 329.653 38.0685C329.653 41.2062 328.937 44.0179 327.504 46.5037C326.112 48.9894 324.167 50.9454 321.669 52.3716C319.172 53.7571 316.367 54.4499 313.255 54.4499ZM313.255 50.599C315.548 50.599 317.595 50.0897 319.397 49.0709C321.239 48.0114 322.672 46.524 323.696 44.6088C324.72 42.6936 325.231 40.5135 325.231 38.0685C325.231 35.6235 324.72 33.4434 323.696 31.5281C322.672 29.6129 321.239 28.1459 319.397 27.1271C317.595 26.0676 315.548 25.5379 313.255 25.5379C310.962 25.5379 308.895 26.0676 307.052 27.1271C305.251 28.1459 303.818 29.6129 302.753 31.5281C301.73 33.4434 301.218 35.6235 301.218 38.0685C301.218 40.5135 301.73 42.6936 302.753 44.6088C303.818 46.524 305.251 48.0114 307.052 49.0709C308.895 50.0897 310.962 50.599 313.255 50.599Z" fill="black"/>
<path d="M378.845 21.7482C382.898 21.7482 386.071 22.9095 388.364 25.2323C390.698 27.555 391.865 30.978 391.865 35.5012V54.1443H387.504V35.9291C387.504 32.5876 386.685 30.0408 385.048 28.2885C383.451 26.5363 381.178 25.6601 378.23 25.6601C374.873 25.6601 372.232 26.6993 370.308 28.7775C368.383 30.815 367.421 33.6471 367.421 37.2738V54.1443H363.061V35.9291C363.061 32.5876 362.242 30.0408 360.604 28.2885C359.007 26.5363 356.714 25.6601 353.725 25.6601C350.409 25.6601 347.768 26.6993 345.803 28.7775C343.878 30.815 342.916 33.6471 342.916 37.2738V54.1443H338.556V21.9927H342.732V27.8606C343.879 25.9046 345.475 24.3969 347.523 23.3374C349.57 22.2779 351.924 21.7482 354.585 21.7482C357.288 21.7482 359.621 22.3187 361.587 23.4597C363.593 24.6007 365.087 26.2918 366.07 28.533C367.257 26.414 368.957 24.7637 371.168 23.5819C373.42 22.3594 375.979 21.7482 378.845 21.7482Z" fill="black"/>
<path d="M431.939 39.4132H404.916C405.161 42.7547 406.451 45.4645 408.785 47.5428C411.119 49.5803 414.067 50.599 417.629 50.599C419.635 50.599 421.477 50.2527 423.156 49.5599C424.835 48.8264 426.288 47.7669 427.517 46.3814L429.973 49.1932C428.54 50.9046 426.739 52.2086 424.569 53.1051C422.44 54.0016 420.085 54.4499 417.506 54.4499C414.189 54.4499 411.241 53.7571 408.662 52.3716C406.123 50.9454 404.138 48.9894 402.705 46.5037C401.272 44.0179 400.555 41.2062 400.555 38.0685C400.555 34.9307 401.231 32.119 402.582 29.6333C403.974 27.1475 405.857 25.2119 408.232 23.8264C410.648 22.4409 413.35 21.7482 416.339 21.7482C419.328 21.7482 422.01 22.4409 424.384 23.8264C426.759 25.2119 428.622 27.1475 429.973 29.6333C431.324 32.0782 432 34.89 432 38.0685L431.939 39.4132ZM416.339 25.4768C413.227 25.4768 410.607 26.4751 408.478 28.4719C406.39 30.4279 405.202 32.9951 404.916 36.1736H427.824C427.537 32.9951 426.329 30.4279 424.2 28.4719C422.112 26.4751 419.492 25.4768 416.339 25.4768Z" fill="black"/>
</svg>
