<svg width="25" height="26" viewBox="0 0 25 26" fill="none" xmlns="http://www.w3.org/2000/svg">
<path fill-rule="evenodd" clip-rule="evenodd" d="M11.9299 0.00824438C7.48374 0.263548 3.63268 2.6697 1.51964 6.51263C0.548648 8.27851 0.0583824 10.1018 0.00634247 12.1406C-0.0297978 13.5579 0.08574 14.5715 0.424328 15.8067C1.65643 20.3024 5.17738 23.7077 9.70894 24.7865C10.6996 25.0224 11.2957 25.0854 12.5356 25.0854C14.0534 25.0854 15.0125 24.9402 16.3717 24.5046C17.3 24.2071 18.5293 23.6326 19.0599 23.2482C19.8485 22.677 19.5965 21.3755 18.6479 21.1196C18.2887 21.0227 18.0332 21.0915 17.2526 21.4955C16.1487 22.0667 15.2791 22.3586 14.0476 22.5713C13.3502 22.6918 11.6735 22.6921 10.9708 22.5717C8.75486 22.1924 6.94144 21.2649 5.3873 19.7159C1.50788 15.8496 1.43045 9.59864 5.21291 5.64037C7.92353 2.80387 11.9611 1.78785 15.665 3.01026C17.2186 3.52299 18.5888 4.38248 19.7299 5.56017C20.5728 6.43001 21.091 7.16694 21.596 8.21431C22.643 10.3855 22.8796 12.8052 22.274 15.1489C22.083 15.888 21.9639 16.1544 21.6902 16.4538C20.7657 17.4654 19.0717 17.0836 18.6634 15.7717C18.5724 15.4793 18.5673 15.2545 18.5673 11.5237C18.5673 8.57828 18.5519 7.53193 18.506 7.37657C18.3778 6.94278 17.8226 6.53787 17.3559 6.53787C16.7742 6.53787 16.1445 7.12409 16.1445 7.66579C16.1445 7.72661 16.054 7.68866 15.7867 7.51573C14.5633 6.72433 13.0372 6.39437 11.6016 6.61081C10.2917 6.80827 9.19607 7.36622 8.23875 8.32343C7.41858 9.1435 6.91812 10.0148 6.61618 11.1486C6.48984 11.6229 6.47989 11.7326 6.48257 12.6201C6.48519 13.4866 6.49801 13.6255 6.61517 14.0587C7.37871 16.8815 9.90595 18.7696 12.7375 18.6327C14.1227 18.5658 15.3284 18.1016 16.4276 17.2123L16.5844 17.0853L16.7748 17.4108C17.199 18.1361 18.0415 18.8511 18.835 19.1592C19.8569 19.5558 20.9899 19.5472 22.0106 19.1349C22.9407 18.7592 23.758 17.97 24.1918 17.0286C24.4799 16.4034 24.7879 15.2147 24.9352 14.1596C25.0212 13.5433 25.0217 11.6086 24.9361 11.0049C24.5863 8.54128 23.7206 6.50128 22.2491 4.67301C20.2412 2.17843 17.2367 0.495028 14.1003 0.107378C13.4499 0.0269707 12.4216 -0.0199713 11.9299 0.00824438ZM13.1747 9.03195C13.6905 9.13119 14.0602 9.27974 14.4893 9.56023C14.9982 9.89291 15.4801 10.4279 15.7342 10.9427C16.0442 11.5706 16.1189 11.9056 16.1139 12.6454C16.1102 13.1831 16.09 13.336 15.9769 13.6801C15.7869 14.2586 15.5215 14.682 15.0595 15.144C14.5974 15.6061 14.174 15.8715 13.5955 16.0615C13.2514 16.1746 13.0986 16.1948 12.5608 16.1985C11.821 16.2035 11.486 16.1288 10.8581 15.8188C10.1268 15.4578 9.40993 14.6706 9.12666 13.9177C8.73896 12.8872 8.82951 11.7036 9.36677 10.7778C9.60143 10.3735 10.2657 9.7004 10.6558 9.47164C11.4236 9.02135 12.3128 8.86614 13.1747 9.03195Z" fill="#E8E8E8"/>
</svg>
