<svg width="20" height="20" viewBox="0 0 20 20" fill="none" xmlns="http://www.w3.org/2000/svg">
<path fill-rule="evenodd" clip-rule="evenodd" d="M3.46207 0.0528101C2.9772 0.157989 2.88379 0.230938 1.61656 1.49477C0.510699 2.59769 0.425174 2.69305 0.295434 2.9674C0.0816603 3.41952 0.0283051 3.66516 0.00515838 4.30441C-0.0182238 4.94992 0.0346607 5.37643 0.230231 6.1189C1.4084 10.5919 6.68935 16.4749 11.7438 18.9451C13.2427 19.6776 14.3744 19.9962 15.4904 19.9999C16.1736 20.0022 16.5191 19.9333 16.9925 19.7004C17.2973 19.5505 17.3775 19.4794 18.4779 18.3833C19.7103 17.1558 19.784 17.063 19.9389 16.5428C20.0204 16.269 20.0204 15.7553 19.9389 15.4814C19.7984 15.0095 19.7412 14.941 18.1826 13.378C17.36 12.553 16.5811 11.8029 16.4516 11.711C15.6732 11.1585 14.6738 11.2351 14.0227 11.8972C13.8257 12.0975 13.7499 12.2148 13.6138 12.5299C13.5218 12.7427 13.399 12.9813 13.3406 13.06C12.9658 13.5665 12.2419 13.8889 11.6261 13.8238C10.7081 13.7267 9.33851 12.8997 8.17831 11.7421C6.77378 10.3406 5.94536 8.72808 6.1474 7.78886C6.24148 7.35152 6.54941 6.89388 6.9136 6.65008C7.0025 6.59059 7.18998 6.49315 7.33024 6.43362C7.7377 6.26054 7.83794 6.20378 8.02707 6.03907C8.67989 5.4705 8.82277 4.40635 8.3476 3.6519C8.20774 3.42989 5.50255 0.700861 5.17249 0.448846C4.90936 0.247914 4.56401 0.0931764 4.25313 0.0368513C3.95862 -0.0165011 3.7634 -0.0125505 3.46207 0.0528101Z" fill="black"/>
</svg>
