<svg width="20" height="20" viewBox="0 0 20 20" fill="none" xmlns="http://www.w3.org/2000/svg">
<path fill-rule="evenodd" clip-rule="evenodd" d="M9.66332 0.0508466C9.31224 0.181899 9.08752 0.453975 9.01748 0.832857C8.99433 0.95816 8.97536 1.30497 8.97536 1.60356C8.97536 1.9022 8.95882 2.17736 8.93864 2.2151C8.91842 2.25288 8.83485 2.31225 8.75288 2.34713C8.6709 2.38198 8.41248 2.49207 8.17865 2.59179C7.87251 2.72238 7.72526 2.7661 7.6528 2.74791C7.59746 2.73399 7.34005 2.51514 7.08076 2.26156C6.82147 2.00794 6.54849 1.76927 6.47419 1.7311C6.39988 1.69297 6.23207 1.65315 6.10125 1.64267C5.68236 1.60904 5.58823 1.67322 4.60673 2.66145C3.82691 3.4467 3.73794 3.54979 3.67614 3.74013C3.59386 3.99355 3.6147 4.25128 3.73719 4.49496C3.78682 4.59371 4.08506 4.92766 4.45557 5.29934C5.03156 5.87717 5.10125 5.93473 5.22343 5.9336C5.37223 5.93223 5.4589 5.88037 5.52745 5.75167C5.62659 5.56547 5.58893 5.50673 4.96907 4.8817C4.36547 4.27302 4.26253 4.13071 4.30465 3.96289C4.31697 3.91377 4.68318 3.51901 5.11838 3.08569C5.82026 2.38687 5.92401 2.29778 6.03614 2.29778C6.14517 2.29778 6.23406 2.367 6.68182 2.80063C7.11807 3.2232 7.23422 3.31452 7.40892 3.37255C7.69249 3.46676 7.9045 3.43477 8.3957 3.22371C8.61772 3.12832 8.88092 3.02015 8.98056 2.98335C9.23676 2.88866 9.43973 2.70708 9.54709 2.47654C9.63152 2.2952 9.6395 2.22636 9.64005 1.67204C9.64036 1.33864 9.65898 0.999889 9.68135 0.919286C9.7535 0.65949 9.80336 0.650143 11.0485 0.663283C12.1257 0.674625 12.1424 0.676032 12.2301 0.763792C12.315 0.848657 12.32 0.887491 12.3387 1.60775L12.3582 2.36277L12.4769 2.55515C12.6224 2.79105 12.7707 2.89015 13.3086 3.11096C14.1807 3.46895 14.2488 3.48256 14.5886 3.3668C14.7412 3.31479 14.8844 3.20036 15.298 2.79973C15.7469 2.365 15.8334 2.29778 15.9439 2.29778C16.0577 2.29778 16.1588 2.38511 16.884 3.11029C17.6115 3.83782 17.6965 3.9363 17.6965 4.05132C17.6965 4.16281 17.6327 4.24533 17.2136 4.67603C16.6827 5.22148 16.6047 5.33865 16.5745 5.63618C16.5522 5.85538 16.5753 5.93325 16.895 6.71702C17.1102 7.24482 17.204 7.38104 17.4534 7.52766C17.6336 7.6336 17.655 7.63649 18.3897 7.65562C19.1066 7.67427 19.1456 7.67932 19.2305 7.76418C19.3183 7.85194 19.3197 7.86864 19.331 8.9458C19.3442 10.1909 19.3348 10.2408 19.075 10.313C18.9944 10.3353 18.6557 10.3539 18.3223 10.3542C17.7679 10.3548 17.6991 10.3628 17.5178 10.4472C17.2872 10.5546 17.1056 10.7575 17.011 11.0137C16.9741 11.1134 16.866 11.3766 16.7706 11.5986C16.5595 12.0898 16.5275 12.3018 16.6217 12.5854C16.6798 12.7601 16.7711 12.8762 17.1937 13.3125C17.6273 13.7602 17.6965 13.8491 17.6965 13.9582C17.6965 14.0703 17.6074 14.174 16.9086 14.8759C16.4753 15.3111 16.0805 15.6773 16.0314 15.6896C15.8636 15.7318 15.7213 15.6288 15.1126 15.0252C14.5798 14.4969 14.4879 14.4214 14.3776 14.4214C14.1983 14.4214 14.0594 14.5698 14.0594 14.7614C14.0594 14.9008 14.0967 14.9465 14.695 15.5405C15.0614 15.9044 15.402 16.2076 15.4993 16.2568C15.7426 16.3796 16.0005 16.4005 16.2542 16.3182C16.4445 16.2564 16.5476 16.1674 17.3329 15.3876C18.3211 14.4061 18.3853 14.3119 18.3516 13.893C18.3411 13.7622 18.3013 13.5944 18.2632 13.5201C18.225 13.4458 17.9864 13.1728 17.7327 12.9135C17.4792 12.6543 17.2602 12.3965 17.2462 12.3408C17.2287 12.271 17.2571 12.156 17.3373 11.9714C17.4014 11.824 17.5102 11.5666 17.5791 11.3995C17.648 11.2324 17.7367 11.0784 17.7761 11.0573C17.8156 11.0362 18.0921 11.0189 18.3907 11.0189C19.2576 11.0189 19.5584 10.9276 19.803 10.59C19.9958 10.3238 20.0095 10.2046 19.9964 8.90709C19.9849 7.77091 19.9803 7.70685 19.8998 7.55785C19.7898 7.35429 19.5934 7.16837 19.3977 7.08256C19.273 7.02781 19.1027 7.01123 18.5569 7.00067C18.177 6.99332 17.8351 6.96876 17.7884 6.94549C17.7422 6.92242 17.6774 6.83954 17.6444 6.76137C17.2557 5.84017 17.2248 5.75437 17.2476 5.66164C17.2609 5.60755 17.4795 5.35214 17.7333 5.09402C17.9872 4.83591 18.2258 4.56391 18.2637 4.4896C18.3016 4.4153 18.3413 4.2458 18.3519 4.11291C18.3862 3.68679 18.2905 3.54134 17.3717 2.62288C16.5127 1.76418 16.3288 1.63407 15.9729 1.63333C15.6108 1.63254 15.4524 1.72425 14.921 2.24244C14.6476 2.50904 14.383 2.7336 14.3254 2.74807C14.2505 2.76688 14.1367 2.73583 13.9157 2.63638C13.7474 2.56066 13.5077 2.46074 13.3831 2.41436C13.0102 2.27552 13.0132 2.28268 12.9958 1.46328C12.9838 0.89457 12.9671 0.721828 12.9119 0.596564C12.8258 0.400788 12.6399 0.204503 12.4365 0.0944915C12.2865 0.0134591 12.2285 0.00958733 11.0481 0.00188299C10.0494 -0.00468721 9.78725 0.00462057 9.66332 0.0508466ZM10.2008 4.73888C9.40532 4.89003 8.48182 5.36395 8.01944 5.85832C7.80853 6.08378 7.7851 6.23426 7.93723 6.38636C8.10286 6.55202 8.25393 6.51929 8.565 6.2503C10.0994 4.92355 12.3219 5.02695 13.6893 6.48874C14.249 7.0871 14.5616 7.77701 14.6561 8.62245C14.7661 9.60712 14.421 10.6634 13.7379 11.433C13.6136 11.573 13.5099 11.7175 13.5074 11.7541C13.4907 12.0015 13.6116 12.1531 13.8257 12.1531C13.9497 12.1531 13.9985 12.1224 14.1829 11.9282C14.7366 11.3454 15.1533 10.4763 15.2736 9.65405C15.3489 9.13904 15.3036 8.30392 15.1774 7.87803C14.9382 7.07161 14.5968 6.48217 14.0544 5.93986C13.5128 5.39821 12.9262 5.05812 12.1163 4.81616C11.8179 4.72699 11.6849 4.71131 11.1263 4.69942C10.6907 4.69011 10.39 4.70294 10.2008 4.73888ZM5.58854 6.75245C5.50031 6.79254 5.36723 6.88624 5.29277 6.9607C5.08142 7.172 5.0124 7.35441 4.98537 7.77294C4.97219 7.97728 4.94799 8.174 4.93164 8.21006C4.90098 8.27771 4.68451 8.39179 4.43093 8.47392C4.24955 8.53266 4.19003 8.50403 3.86492 8.20145C3.48471 7.84756 3.09531 7.7659 2.68874 7.95468C2.60806 7.99215 2.28244 8.27771 1.96519 8.58929C1.29566 9.24682 1.1928 9.40748 1.1928 9.79594C1.1928 10.1218 1.26469 10.2806 1.54388 10.5713C1.83989 10.8796 1.85733 10.9515 1.72069 11.2998C1.58999 11.633 1.50184 11.6833 1.0474 11.6846C0.693469 11.6857 0.493782 11.7596 0.286899 11.9666C0.0116543 12.2418 0 12.2978 0 13.3459C0 14.3823 0.00535784 14.409 0.268361 14.6888C0.477747 14.9115 0.658702 14.9813 1.07548 15.0002C1.27982 15.0095 1.47962 15.0342 1.51952 15.0552C1.60669 15.101 1.81854 15.5525 1.81854 15.6925C1.81854 15.7603 1.74255 15.8738 1.58052 16.048C1.2894 16.3609 1.18498 16.5819 1.18498 16.8852C1.18498 17.2667 1.2824 17.4208 1.93254 18.0677C2.58932 18.7212 2.71553 18.7998 3.10911 18.7998C3.43594 18.7998 3.60426 18.7222 3.94095 18.4163C4.11705 18.2563 4.23848 18.1758 4.30356 18.1758C4.44216 18.1758 4.89355 18.3882 4.93911 18.4748C4.96007 18.5147 4.98479 18.7145 4.9941 18.9188C5.01298 19.3356 5.08283 19.5166 5.30551 19.7259C5.58526 19.9889 5.61205 19.9943 6.64842 19.9943C7.69347 19.9943 7.75307 19.9821 8.02253 19.7126C8.23621 19.4989 8.28424 19.3682 8.30982 18.9301C8.32988 18.5869 8.34568 18.5174 8.42229 18.4359C8.51361 18.3387 8.88549 18.1758 9.01607 18.1758C9.05616 18.1758 9.20856 18.2833 9.35479 18.4149C9.68764 18.7142 9.88995 18.8093 10.1938 18.8093C10.5686 18.8093 10.7495 18.6941 11.3856 18.0505C11.6895 17.743 11.9758 17.4166 12.0218 17.3253C12.2294 16.9132 12.1546 16.518 11.796 16.1327C11.5235 15.84 11.4638 15.7359 11.4955 15.6094C11.5405 15.4304 11.7192 15.0922 11.7846 15.0625C11.8205 15.0462 12.017 15.0221 12.2214 15.0089C12.6399 14.9819 12.8223 14.9129 13.0336 14.7015C13.2969 14.4383 13.3147 14.3524 13.3147 13.3459C13.3147 12.5246 13.3077 12.4311 13.235 12.2704C13.0549 11.8726 12.7373 11.6851 12.2409 11.6836C12.0688 11.6831 11.884 11.6609 11.8303 11.6343C11.7113 11.5756 11.5037 11.1683 11.5026 10.9916C11.5019 10.8925 11.5472 10.8187 11.7198 10.6378C12.1022 10.2369 12.2042 9.92281 12.0863 9.50943C12.024 9.29109 11.9851 9.24338 11.368 8.62726C10.7535 8.01366 10.7023 7.97204 10.4849 7.90904C10.0725 7.78956 9.75812 7.8914 9.35647 8.27451C9.17376 8.44877 9.10203 8.49254 8.99902 8.49254C8.82284 8.49254 8.41995 8.28542 8.35999 8.16403C8.3334 8.11025 8.31122 7.92547 8.31072 7.75339C8.30919 7.25695 8.12175 6.93939 7.7239 6.75929C7.5632 6.68655 7.46969 6.67963 6.64842 6.67963C5.85456 6.67963 5.73007 6.6882 5.58854 6.75245ZM7.53289 7.41678C7.61353 7.48206 7.62734 7.53626 7.65022 7.87701C7.66449 8.08945 7.70536 8.33333 7.74106 8.41897C7.83606 8.64698 8.04869 8.84385 8.34978 8.98264C8.97489 9.27079 9.30907 9.23047 9.75319 8.81338C10.0448 8.53951 10.1733 8.48589 10.3347 8.5706C10.5033 8.65906 11.4297 9.61831 11.4589 9.73466C11.4928 9.86958 11.4365 9.97189 11.1783 10.2451C10.7555 10.6925 10.7213 11.0788 11.0479 11.7209C11.2704 12.1582 11.5205 12.304 12.1173 12.3441C12.6705 12.3812 12.6515 12.3458 12.6515 13.3428C12.6515 14.3514 12.6677 14.3261 12.0063 14.3528C11.4636 14.3748 11.191 14.5783 10.968 15.1277C10.7378 15.6949 10.7926 16.0386 11.1783 16.4467C11.5945 16.8871 11.5848 16.9247 10.8749 17.6227C10.3944 18.095 10.3403 18.1367 10.2074 18.1367C10.0855 18.1367 10.0233 18.1005 9.81075 17.9057C9.3519 17.4852 9.05186 17.4201 8.51944 17.6255C8.10524 17.7851 7.92526 17.92 7.78713 18.1741C7.69245 18.3482 7.67165 18.4385 7.65729 18.7381C7.64787 18.9343 7.62186 19.1325 7.59953 19.1785C7.52726 19.3272 7.40329 19.349 6.62921 19.349C5.90438 19.349 5.88807 19.3472 5.78045 19.2546C5.67665 19.1654 5.6695 19.1381 5.6483 18.7517C5.62941 18.4073 5.61005 18.3162 5.52491 18.1715C5.38291 17.93 5.28283 17.8477 4.92683 17.6797C4.6528 17.5504 4.57904 17.5324 4.32147 17.5322C3.96817 17.532 3.85577 17.5839 3.50853 17.9075C3.30051 18.1014 3.2404 18.1367 3.11795 18.1367C2.98393 18.1367 2.93187 18.0954 2.41545 17.5799C1.89718 17.0625 1.85765 17.0128 1.85765 16.8774C1.85765 16.7537 1.89233 16.6944 2.08678 16.4858C2.41044 16.1385 2.4623 16.0261 2.46207 15.6728C2.46187 15.4153 2.44388 15.3415 2.31459 15.0675C2.14658 14.7115 2.06429 14.6114 1.82284 14.4694C1.6781 14.3842 1.58698 14.3649 1.24259 14.346C0.856199 14.3248 0.828901 14.3176 0.739656 14.2139C0.647086 14.1062 0.645287 14.0899 0.645287 13.3651C0.645287 12.591 0.667071 12.467 0.8158 12.3948C0.86183 12.3724 1.05999 12.3464 1.25616 12.337C1.86605 12.3077 2.12503 12.1071 2.36883 11.4749C2.57415 10.9426 2.50469 10.6252 2.08463 10.1762C1.89073 9.96888 1.85765 9.9119 1.85765 9.78542C1.85765 9.64819 1.89425 9.60024 2.35628 9.13208C2.63054 8.85421 2.9052 8.60048 2.96668 8.56825C3.12816 8.48358 3.23774 8.52742 3.5194 8.78941C3.81998 9.06907 3.99253 9.14987 4.30192 9.15574C4.48471 9.15922 4.60778 9.13133 4.8589 9.02938C5.41099 8.80529 5.61959 8.52766 5.64146 7.98804C5.65784 7.58389 5.6736 7.51776 5.77634 7.42206C5.856 7.34784 5.91189 7.34275 6.65147 7.34275C7.36824 7.34275 7.44994 7.3496 7.53289 7.41678ZM5.91658 10.4339C4.07657 10.8863 3.12311 12.9737 3.97919 14.6756C4.37841 15.4692 5.04036 16.0037 5.92749 16.2487C6.30982 16.3542 7.06031 16.3436 7.46969 16.2269C7.96187 16.0866 8.56907 15.7223 8.9429 15.3431C9.17059 15.1122 9.42304 14.6006 9.5481 14.1168C9.63575 13.7778 9.64423 13.6823 9.6271 13.2286C9.60735 12.7063 9.55682 12.4797 9.36531 12.0553C9.02045 11.2909 8.23919 10.6569 7.36113 10.4288C6.98174 10.3303 6.32874 10.3326 5.91658 10.4339ZM7.21549 11.077C8.04286 11.2969 8.72675 11.9833 8.91525 12.7828C9.31162 14.4644 7.83774 15.9732 6.14834 15.6152C5.38099 15.4526 4.71658 14.8622 4.4519 14.1076C4.00223 12.8257 4.75397 11.4292 6.08135 11.0806C6.36257 11.0067 6.94408 11.0049 7.21549 11.077Z" fill="black"/>
</svg>
