<svg width="25" height="31" viewBox="0 0 25 31" fill="none" xmlns="http://www.w3.org/2000/svg">
<path fill-rule="evenodd" clip-rule="evenodd" d="M11.2125 0.97491C9.61272 1.2264 8.18341 1.98431 7.06312 3.1752C5.83415 4.48161 5.19726 5.99017 5.10969 7.80219C4.98737 10.333 6.22934 12.7523 8.37064 14.1546C9.42386 14.8442 10.4397 15.1944 11.6701 15.2919C13.9507 15.4726 15.8954 14.7558 17.4653 13.1558C18.7081 11.8892 19.3437 10.5111 19.4984 8.74727C19.7052 6.39116 18.8186 4.19685 17.0413 2.6659C15.895 1.67846 14.8374 1.19078 13.38 0.977546C12.6798 0.875089 11.854 0.874093 11.2125 0.97491ZM5.89209 15.4231C3.24295 15.7028 1.40721 17.6037 0.551174 20.9535C-0.0196359 23.1872 -0.166439 25.8713 0.201916 27.3388C0.497865 28.5177 1.47382 29.714 2.60431 30.2836C3.11783 30.5424 3.85143 30.7569 4.46313 30.8273C4.82557 30.869 7.59227 30.8832 12.882 30.8707L20.7611 30.852L21.2591 30.7153C23.1076 30.2079 24.3763 28.9694 24.8379 27.2217C25.0784 26.3112 25.0476 24.1447 24.7698 22.4328C24.1523 18.6271 22.5944 16.3423 20.1299 15.6282C19.5665 15.4649 18.5584 15.3407 18.2596 15.3978C17.9737 15.4524 17.5741 15.6659 16.672 16.2459C15.711 16.8638 15.5778 16.9342 14.8582 17.2037C14.0248 17.5159 13.337 17.6475 12.5387 17.6477C11.7137 17.6477 11.0827 17.5347 10.2506 17.2379C9.4648 16.9576 9.43077 16.9397 8.20356 16.1602C7.55642 15.7492 7.07764 15.486 6.88737 15.4367C6.56219 15.3523 6.56225 15.3523 5.89209 15.4231Z" fill="#E8E8E8"/>
</svg>
